<svg width="424" height="129" viewBox="0 0 424 129" fill="none" xmlns="http://www.w3.org/2000/svg">
<path d="M36.2041 1.87763C23.9713 5.09029 14.9512 12.9984 9.5144 24.984C6.54887 31.2858 6.17818 33.3863 6.67243 42.2829C7.29025 58.5933 15.1983 70.8261 29.2846 77.8692C35.3392 80.8348 36.2041 80.8348 73.7675 81.4526C94.8968 81.8233 112.814 82.5647 113.678 83.0589C114.42 83.6767 115.161 85.6537 115.161 87.5072C115.161 89.4842 114.42 91.5848 113.678 92.2026C112.69 93.0676 97.3681 93.4382 73.6439 93.4382L35.3392 93.3147L17.6696 110.861L0 128.407H57.4571C122.328 128.407 124.676 128.16 135.673 119.139C159.026 99.9871 154.084 62.918 126.529 50.191C121.092 47.5962 118.374 47.4726 81.7991 46.8548L42.8766 46.237L41.7645 42.9007C39.1697 35.3634 33.3622 35.734 149.018 35.734L254.17 35.6105L271.84 18.5587C281.478 9.16788 289.386 1.13625 289.386 0.641991C289.386 0.271301 233.906 -0.0993958 166.193 0.0241699C62.276 0.0241699 41.7645 0.394867 36.2041 1.87763Z" fill="#02A0A0"/>
<path d="M156.705 127.454V87.6971V48.0564H174.573H192.441V52.4609V56.7495L238.322 56.5177L284.317 56.17L264.144 79.9313C264.374 80.7426 254.691 81.0903 230.368 81.0903C211.577 81.0903 195.438 81.3222 194.401 81.7858C192.787 82.3653 192.441 84.104 192.441 90.479V94.2978H241.434C268.409 94.2978 290.427 94.6456 290.427 95.1092L273.712 121.311L269.216 127.454H212.961H156.705Z" fill="#02A0A0"/>
<circle cx="358.815" cy="64.2075" r="64.2075" fill="#02A0A0"/>
<circle cx="359.377" cy="64.7717" r="35.5199" fill="#CCECEC"/>
</svg>
